<svg xmlns="http://www.w3.org/2000/svg" version="1.1" viewBox="100.27 298.65 784.41 452.43">
<path fill="#ffffff" d="   M 629.32 328.71   A 1.03 0.99 40.9 0 1 629.40 329.59   Q 628.43 332.09 627.31 333.20   Q 590.14 370.31 557.34 403.25   Q 549.66 410.96 547.73 412.18   Q 542.37 415.58 535.27 415.84   C 531.81 415.97 527.30 414.66 523.38 413.70   Q 462.54 398.73 425.16 388.98   Q 417.68 387.04 420.67 379.74   Q 421.39 378.01 425.62 373.77   Q 445.40 353.97 455.97 343.95   C 467.42 333.11 478.86 321.32 487.83 312.81   C 495.09 305.93 504.61 300.44 514.49 299.11   C 524.93 297.72 532.43 299.64 544.62 302.82   Q 605.00 318.55 617.14 321.79   Q 622.91 323.32 627.28 325.91   Q 627.89 326.28 629.32 328.71   Z   M 531.8487 318.6436   A 16.18 9.65 -14.3 0 0 513.7865 313.2890   A 16.18 9.65 -14.3 0 0 500.4913 326.6364   A 16.18 9.65 -14.3 0 0 518.5535 331.9910   A 16.18 9.65 -14.3 0 0 531.8487 318.6436   Z   M 595.8818 337.2783   A 16.08 9.56 -14.3 0 0 577.9387 331.9862   A 16.08 9.56 -14.3 0 0 564.7182 345.2217   A 16.08 9.56 -14.3 0 0 582.6613 350.5138   A 16.08 9.56 -14.3 0 0 595.8818 337.2783   Z   M 486.6853 365.3496   A 16.10 9.64 -13.8 0 0 468.7505 359.8283   A 16.10 9.64 -13.8 0 0 455.4147 373.0304   A 16.10 9.64 -13.8 0 0 473.3495 378.5517   A 16.10 9.64 -13.8 0 0 486.6853 365.3496   Z   M 547.9939 381.9436   A 16.11 9.63 -14.4 0 0 529.9951 376.6225   A 16.11 9.63 -14.4 0 0 516.7861 389.9564   A 16.11 9.63 -14.4 0 0 534.7849 395.2775   A 16.11 9.63 -14.4 0 0 547.9939 381.9436   Z"/>
<path fill="#ffffff" d="   M 741.61 412.49   C 748.89 405.11 775.65 376.03 758.35 368.48   Q 750.47 365.04 739.25 365.67   Q 725.04 366.47 714.76 368.51   Q 695.98 372.24 685.27 375.29   Q 678.93 377.09 662.84 382.04   A 0.50 0.50 0.0 0 1 662.22 381.73   Q 656.81 365.88 654.18 351.29   A 0.70 0.70 0.0 0 1 654.57 350.53   Q 655.99 349.85 658.26 349.02   Q 701.75 333.05 746.23 321.24   Q 778.08 312.79 808.73 308.91   Q 828.64 306.39 848.94 308.33   C 863.55 309.73 880.27 316.05 884.02 332.04   C 887.30 346.07 877.62 363.81 869.82 374.82   Q 855.15 395.54 836.32 413.83   Q 810.03 439.38 780.39 462.64   Q 751.94 484.96 725.15 503.16   Q 652.90 552.24 578.08 593.36   Q 482.38 645.95 388.98 685.19   C 329.26 710.28 269.37 731.46 207.11 744.85   C 201.80 745.99 190.79 747.46 181.40 748.90   Q 160.46 752.11 139.75 750.60   Q 131.48 750.00 123.08 747.46   C 105.65 742.18 96.51 729.21 101.73 710.25   C 106.26 693.80 117.49 678.80 129.02 665.52   Q 138.56 654.54 145.11 648.11   Q 170.44 623.25 193.76 604.51   Q 210.39 591.16 237.82 571.04   Q 238.41 570.60 239.37 569.73   A 0.33 0.33 0.0 0 1 239.92 570.04   C 237.69 581.49 235.72 591.42 234.96 601.74   Q 234.13 612.91 237.39 623.60   A 2.71 2.69 -31.2 0 1 236.72 626.29   C 230.46 632.63 223.40 641.68 221.61 650.56   C 220.63 655.43 222.82 658.44 227.44 660.34   C 238.08 664.71 251.39 662.28 262.33 660.80   Q 268.67 659.94 276.63 658.11   C 318.64 648.45 359.24 634.23 398.99 617.47   Q 504.62 572.95 600.12 514.83   C 630.30 496.46 660.20 476.41 687.16 455.41   C 698.31 446.72 750.85 404.76 738.28 389.72   C 734.74 385.48 724.07 384.63 718.97 384.71   C 701.11 384.98 682.41 388.86 665.22 393.74   A 0.24 0.24 0.0 0 1 664.92 393.56   L 663.41 386.59   A 0.24 0.23 78.2 0 1 663.58 386.32   Q 684.04 380.86 702.75 378.32   Q 715.92 376.52 728.07 377.65   C 739.50 378.72 750.44 385.53 747.43 398.62   Q 746.13 404.30 741.14 412.11   A 0.31 0.30 83.7 0 0 741.61 412.49   Z   M 811.91 316.51   A 0.06 0.05 -5.7 0 0 811.97 316.55   Q 826.79 315.55 840.98 318.54   C 851.91 320.85 861.63 326.66 863.97 338.37   C 865.59 346.47 861.36 357.08 857.18 364.46   Q 849.48 378.07 838.13 390.39   C 815.77 414.70 789.33 436.59 763.86 455.61   C 741.34 472.43 716.87 489.37 691.82 505.33   C 630.98 544.08 567.38 579.01 501.29 611.28   Q 433.97 644.15 366.04 670.80   Q 324.56 687.07 282.49 700.21   C 271.39 703.68 250.96 709.58 235.31 713.17   Q 217.78 717.19 215.23 717.65   Q 191.06 722.09 167.51 723.01   C 146.62 723.83 112.42 717.58 122.67 686.85   A 0.19 0.19 0.0 0 0 122.33 686.68   Q 116.34 695.64 112.17 704.42   C 108.04 713.11 105.45 726.39 113.49 733.56   Q 119.98 739.36 129.56 741.19   Q 140.70 743.33 145.49 743.38   Q 164.70 743.59 186.15 740.58   C 193.92 739.50 202.39 737.41 208.37 736.33   Q 215.84 734.99 224.96 732.78   Q 259.05 724.53 291.92 713.39   Q 354.86 692.06 415.96 665.19   Q 521.61 618.73 621.38 559.87   C 670.20 531.07 716.28 501.07 761.09 467.33   Q 795.37 441.51 818.91 419.92   Q 843.06 397.77 859.86 376.12   C 866.44 367.63 873.99 355.37 876.33 343.98   C 883.25 310.28 831.10 314.63 811.93 316.13   A 0.09 0.09 0.0 0 0 811.85 316.24   L 811.91 316.51   Z   M 809.5498 316.8361   A 1.37 0.06 -1.0 0 0 808.1790 316.8000   A 1.37 0.06 -1.0 0 0 806.8102 316.8839   A 1.37 0.06 -1.0 0 0 808.1810 316.9200   A 1.37 0.06 -1.0 0 0 809.5498 316.8361   Z   M 231.73 592.20   Q 212.29 607.14 192.84 625.34   C 181.45 636.01 170.29 647.93 161.66 661.41   C 155.75 670.65 148.80 686.93 163.01 693.32   Q 171.73 697.25 183.05 697.57   Q 200.12 698.06 216.24 695.38   Q 246.71 690.31 270.29 683.49   Q 333.08 665.33 387.53 643.23   Q 412.36 633.14 428.42 626.14   Q 542.94 576.23 650.87 510.60   C 691.23 486.06 732.57 458.21 769.23 428.41   Q 778.84 420.60 786.96 413.22   C 799.56 401.76 809.62 391.88 819.37 379.63   Q 826.15 371.10 830.50 361.62   C 831.96 358.45 833.39 353.70 833.33 350.95   C 833.08 338.82 821.94 335.84 811.88 334.37   Q 802.39 332.98 794.00 333.59   Q 777.71 334.77 760.81 337.23   A 0.14 0.01 -4.7 0 0 760.69 337.25   Q 760.67 337.26 760.63 337.28   A 0.06 0.05 -55.4 0 0 760.64 337.38   C 773.34 337.50 793.18 337.17 802.02 348.40   C 823.54 375.76 753.25 433.40 734.10 448.85   Q 712.86 465.99 684.86 485.35   Q 649.71 509.66 610.36 532.86   Q 515.31 588.89 416.24 630.75   Q 388.63 642.42 356.85 653.82   Q 329.33 663.69 302.49 671.23   Q 273.50 679.38 248.99 683.39   Q 232.91 686.02 214.42 685.66   Q 210.35 685.59 205.70 684.65   Q 199.08 683.32 197.13 682.61   C 178.85 676.00 177.59 661.05 185.67 645.60   C 194.52 628.68 208.71 613.59 222.93 600.43   Q 229.30 594.54 231.76 592.23   A 0.02 0.02 0.0 0 0 231.73 592.20   Z   M 244.74 669.79   C 237.14 670.08 229.49 669.89 223.89 667.37   C 206.90 659.73 213.49 643.97 221.38 632.61   Q 221.38 632.60 221.37 632.60   A 0.05 0.03 13.3 0 0 221.34 632.61   Q 215.77 638.97 211.50 646.00   C 206.76 653.80 202.20 664.89 214.33 669.19   Q 217.79 670.42 220.49 670.70   Q 232.17 671.90 244.76 670.03   A 0.12 0.12 0.0 0 0 244.74 669.79   Z"/>
<path fill="#ffffff" d="   M 572.54 520.05   Q 551.69 445.15 548.43 433.58   Q 546.49 426.67 549.99 419.29   Q 550.59 418.03 554.27 413.73   Q 556.19 411.49 559.15 408.68   Q 573.04 395.52 581.16 387.34   C 599.01 369.35 615.33 354.39 631.80 337.80   Q 634.19 335.40 637.09 335.16   A 2.63 2.61 -38.9 0 1 638.05 335.26   C 645.82 337.60 650.22 351.58 652.04 358.47   Q 655.54 371.66 672.71 436.56   C 673.70 440.29 675.64 449.86 672.47 452.69   Q 660.70 463.23 640.64 477.22   Q 624.52 488.46 624.21 488.68   Q 613.92 495.97 607.52 499.75   Q 593.73 507.88 590.50 510.16   C 585.84 513.46 579.69 516.59 573.33 520.37   A 0.54 0.53 -22.7 0 1 572.54 520.05   Z   M 618.3179 419.2367   A 15.56 10.35 -82.4 0 0 606.0009 433.2911   A 15.56 10.35 -82.4 0 0 614.2021 450.0833   A 15.56 10.35 -82.4 0 0 626.5191 436.0289   A 15.56 10.35 -82.4 0 0 618.3179 419.2367   Z"/>
<path fill="#ffffff" d="   M 547.61 535.16   A 0.16 0.16 0.0 0 1 547.38 535.09   C 546.17 532.25 545.45 528.48 544.19 525.28   Q 538.23 510.16 525.86 499.63   Q 476.58 457.71 458.27 441.73   C 445.79 430.84 434.69 422.38 418.31 420.22   Q 414.81 419.76 414.49 419.69   A 0.90 0.89 1.1 0 1 413.81 418.99   C 412.54 412.24 409.56 397.19 417.55 393.31   C 420.91 391.68 430.42 394.79 435.19 396.09   Q 475.16 406.91 513.76 417.22   C 526.69 420.67 540.15 421.69 544.14 437.13   Q 558.39 492.39 566.59 523.56   A 0.76 0.75 67.5 0 1 566.24 524.41   L 547.61 535.16   Z   M 504.4657 441.3183   A 15.67 10.36 -127.8 0 0 505.8840 460.0497   A 15.67 10.36 -127.8 0 0 523.6743 466.0817   A 15.67 10.36 -127.8 0 0 522.2560 447.3503   A 15.67 10.36 -127.8 0 0 504.4657 441.3183   Z"/>
<path fill="#ffffff" d="   M 530.11 520.46   Q 527.78 522.57 526.03 523.15   Q 467.63 542.45 416.01 559.70   Q 403.92 563.74 401.25 564.00   Q 393.86 564.74 386.29 561.29   C 382.60 559.61 378.57 555.87 374.97 552.80   Q 319.16 505.18 285.16 475.34   Q 278.35 469.37 285.32 463.31   Q 286.98 461.87 293.63 459.66   Q 324.73 449.33 341.06 444.39   C 358.74 439.06 376.90 432.73 390.76 428.54   C 401.97 425.15 414.82 424.40 425.86 428.21   C 437.51 432.23 444.36 438.18 455.45 447.91   Q 510.37 496.09 521.38 505.86   Q 526.61 510.49 529.82 515.50   Q 530.27 516.20 530.49 519.50   A 1.20 1.16 67.5 0 1 530.11 520.46   Z   M 390.5113 492.5466   A 18.99 11.28 -168.2 0 0 406.7933 507.4716   A 18.99 11.28 -168.2 0 0 427.6887 500.3134   A 18.99 11.28 -168.2 0 0 411.4067 485.3884   A 18.99 11.28 -168.2 0 0 390.5113 492.5466   Z"/>
<path fill="#ffffff" d="   M 378.46 614.50   A 1.58 1.57 -86.3 0 1 377.53 615.32   Q 365.69 619.40 355.60 623.43   C 349.85 625.73 343.71 627.16 338.08 629.29   Q 331.52 631.78 325.41 633.50   C 320.05 635.02 314.21 638.00 308.60 639.41   C 299.03 641.81 287.84 645.51 276.69 647.72   Q 271.21 648.80 262.19 650.84   A 2.81 2.81 0.0 0 1 259.64 650.14   C 255.08 645.78 249.75 640.83 246.60 635.58   Q 238.89 622.74 238.29 609.51   Q 237.92 601.48 239.83 591.78   Q 252.68 526.64 256.15 509.45   C 258.10 499.77 259.87 490.70 265.34 482.25   Q 267.71 478.59 270.17 477.22   C 276.16 473.87 280.02 477.07 284.93 481.48   Q 321.31 514.10 357.77 546.22   Q 367.06 554.41 377.65 564.08   Q 383.05 569.01 384.89 577.55   Q 385.81 581.78 383.56 592.89   C 381.36 603.78 380.40 610.58 378.46 614.50   Z   M 287.6369 520.8664   A 18.19 12.18 -101.2 0 0 279.2220 541.0758   A 18.19 12.18 -101.2 0 0 294.7031 556.5536   A 18.19 12.18 -101.2 0 0 303.1180 536.3442   A 18.19 12.18 -101.2 0 0 287.6369 520.8664   Z   M 306.9065 579.8314   A 18.25 12.19 -101.1 0 0 298.4580 600.0868   A 18.25 12.19 -101.1 0 0 313.9335 615.6486   A 18.25 12.19 -101.1 0 0 322.3820 595.3932   A 18.25 12.19 -101.1 0 0 306.9065 579.8314   Z"/>
<path fill="#ffffff" d="   M 385.98 611.12   Q 387.59 600.11 391.02 585.48   C 393.39 575.41 398.94 571.72 408.26 568.52   Q 449.28 554.42 508.51 536.27   C 513.18 534.84 522.10 531.29 531.05 529.21   A 2.59 2.50 43.5 0 1 532.12 529.20   C 537.34 530.28 539.14 533.94 539.60 538.76   A 1.01 1.01 0.0 0 1 539.08 539.74   Q 482.67 570.19 428.19 593.92   Q 412.99 600.54 386.53 611.55   A 0.40 0.40 0.0 0 1 385.98 611.12   Z"/>
<path fill="#ffffff" d="   M 523.46 630.54   A 0.24 0.24 0.0 0 1 523.84 630.76   Q 522.23 640.77 519.28 653.46   Q 517.13 662.73 514.00 668.02   Q 506.38 680.94 494.44 688.40   Q 489.08 691.75 475.25 696.18   Q 452.42 703.48 429.72 710.82   C 416.48 715.10 406.27 718.77 394.43 722.40   Q 382.82 725.97 371.77 724.99   C 368.03 724.65 365.98 720.01 365.86 716.68   Q 365.61 709.52 368.32 702.65   A 1.33 1.32 -2.1 0 1 368.95 701.98   Q 377.19 698.04 379.11 697.35   Q 397.72 690.73 413.34 683.29   Q 434.26 673.32 450.02 666.37   C 474.13 655.74 499.92 643.41 520.63 632.38   Q 522.09 631.60 523.46 630.54   Z"/>
<path fill="#ffffff" d="   M 358.55 706.38   A 0.27 0.27 0.0 0 1 358.91 706.72   C 356.93 712.79 356.86 718.05 349.80 720.56   C 344.69 722.37 338.65 718.66 335.33 714.77   A 0.36 0.36 0.0 0 1 335.51 714.19   Q 347.51 710.87 358.55 706.38   Z"/>
</svg>